<svg width="32" height="32" viewBox="0 0 32 32" fill="none" xmlns="http://www.w3.org/2000/svg">
<path fill-rule="evenodd" clip-rule="evenodd" d="M9.33236 1.01099C7.49142 1.01099 5.99902 2.47292 5.99902 4.27629V15.3784V16.6845V21.909C5.99902 26.9584 10.1777 31.0518 15.3324 31.0518H16.6657C21.8204 31.0518 25.999 26.9584 25.999 21.909V16.6845V15.3784V4.27629C25.999 2.47292 24.5066 1.01099 22.6657 1.01099C20.8248 1.01099 19.3324 2.47292 19.3324 4.27629V12.7661H12.6657V4.27629C12.6657 2.47292 11.1733 1.01099 9.33236 1.01099Z" fill="white"/>
<path d="M12.666 20.2763C13.2183 20.2763 13.666 19.8377 13.666 19.2967C13.666 18.7557 13.2183 18.3171 12.666 18.3171C12.1137 18.3171 11.666 18.7557 11.666 19.2967C11.666 19.8377 12.1137 20.2763 12.666 20.2763Z" fill="white" stroke="black" stroke-width="0.642857"/>
<path d="M19.333 20.2763C19.8853 20.2763 20.333 19.8377 20.333 19.2967C20.333 18.7557 19.8853 18.3171 19.333 18.3171C18.7807 18.3171 18.333 18.7557 18.333 19.2967C18.333 19.8377 18.7807 20.2763 19.333 20.2763Z" fill="white" stroke="black" stroke-width="0.642857"/>
<path d="M15.9987 25.1743H15.332V27.1335H15.9987V25.1743Z" fill="black"/>
<path d="M14.2351 23.6371L13.7637 24.0989L15.2183 25.5238L15.6897 25.062L14.2351 23.6371Z" fill="black"/>
<path d="M15.3333 25.2931L15.8047 25.7549L17.5216 24.073L17.0502 23.6112L15.3333 25.2931Z" fill="black"/>
<path d="M9.05689 23.8184L1.99902 22.5256" stroke="black" stroke-width="0.642857"/>
<path d="M22.6055 23.8184L29.6633 22.5256" stroke="black" stroke-width="0.642857"/>
<path d="M9.6625 26.8547L3.33203 30.1739" stroke="black" stroke-width="0.642857"/>
<path d="M21.998 26.8547L28.3285 30.1739" stroke="black" stroke-width="0.642857"/>
<path fill-rule="evenodd" clip-rule="evenodd" d="M12.6654 4.27628C12.6654 2.4729 11.173 1.01097 9.33203 1.01097C7.4911 1.01097 5.9987 2.47289 5.9987 4.27627V10.1538V10.8069V13.1956V21.166C5.9987 26.5761 10.4758 30.9618 15.9987 30.9619C21.5216 30.9619 25.9987 26.5761 25.9987 21.166V13.1956V12.7305V12.0775V10.8069V4.27628C25.9987 2.4729 24.5063 1.01097 22.6654 1.01097C20.8244 1.01097 19.332 2.47289 19.332 4.27627V12.0775V12.7305H19.056C19.6734 13.0111 20.2346 13.374 20.7207 13.8028C20.8047 13.877 20.8865 13.953 20.9659 14.031C21.175 14.2361 21.3678 14.4543 21.5428 14.684H20.6802H20.6787C20.5576 14.5527 20.4294 14.4264 20.2943 14.3057C19.2154 13.3415 17.7045 12.7323 15.9987 12.7323C14.2928 12.7323 12.7819 13.3415 11.703 14.3058C11.568 14.4265 11.4397 14.5527 11.3187 14.684H11.3172H10.4547C10.6296 14.4543 10.8224 14.2361 11.0315 14.031C11.1109 13.953 11.1926 13.877 11.2766 13.803C11.7627 13.3742 12.3239 13.0111 12.9414 12.7305H12.6654V12.0775V4.27628ZM26.6654 10.1538V10.8069V12.0775V12.7305V13.1956V21.166C26.6654 26.9367 21.8898 31.615 15.9987 31.615C10.1076 31.6149 5.33203 26.9367 5.33203 21.166V13.1956V12.7305V12.0775V4.27627C5.33203 2.11221 7.1229 0.35791 9.33203 0.35791C11.5412 0.35791 13.332 2.11222 13.332 4.27628V12.0775V12.567C14.1486 12.2533 15.0506 12.0793 15.9987 12.0793C16.9468 12.0793 17.8488 12.2533 18.6654 12.5669V12.0775V4.27627C18.6654 2.11221 20.4562 0.35791 22.6654 0.35791C24.8745 0.35791 26.6654 2.11222 26.6654 4.27628V10.1538Z" fill="black"/>
</svg>
